<svg xmlns="http://www.w3.org/2000/svg" style="height: 10px" data-name="Layer 1" viewBox="0 0 32 40" x="0px" y="0px" ><title>communication message chat talk chatting_1</title><g><path d="M24.1382,22.354a1.0012,1.0012,0,0,0-1.1538.8179A1.0071,1.0071,0,0,1,22,24H12a1,1,0,0,0-.4473.1055L7,26.3818V25a1,1,0,0,0-1-1H4a1.0013,1.0013,0,0,1-1-1V13a1.0013,1.0013,0,0,1,1-1H5a1,1,0,0,0,0-2H4a3.0033,3.0033,0,0,0-3,3V23a3.0033,3.0033,0,0,0,3,3H5v2a1,1,0,0,0,1.4473.8945L12.2358,26H22a2.99,2.99,0,0,0,2.9561-2.4922A1,1,0,0,0,24.1382,22.354Z"/><path d="M28,3H10A3.0033,3.0033,0,0,0,7,6V16a3.0033,3.0033,0,0,0,3,3h9.7642l5.7885,2.8945A1,1,0,0,0,27,21V19h1a3.0033,3.0033,0,0,0,3-3V6A3.0033,3.0033,0,0,0,28,3Zm1,13a1.0013,1.0013,0,0,1-1,1H26a1,1,0,0,0-1,1v1.3818l-4.5527-2.2763A1,1,0,0,0,20,17H10a1.0013,1.0013,0,0,1-1-1V6a1.0013,1.0013,0,0,1,1-1H28a1.0013,1.0013,0,0,1,1,1Z"/></g></svg>